<svg width="51" height="51" viewBox="0 0 51 51" fill="none" xmlns="http://www.w3.org/2000/svg">
<path d="M17.1667 8.78422C17.1667 11.0854 15.3012 12.9509 13 12.9509C10.6988 12.9509 8.83333 11.0854 8.83333 8.78422C8.83333 6.48303 10.6988 4.61755 13 4.61755C15.3012 4.61755 17.1667 6.48303 17.1667 8.78422ZM10.9167 33.7842V46.2842H6.75V21.2842C6.75 17.8325 9.54823 15.0342 13 15.0342C14.7096 15.0342 16.2588 15.7206 17.3872 16.8328L22.334 21.5044L27.1523 16.6861L30.0985 19.6324L22.4169 27.314L19.25 24.3232V46.2842H15.0833V33.7842H10.9167ZM21.3333 10.8676H40.0833V29.6176H21.3333V33.7842H30.4279L36.3102 46.2842H40.9152L35.0329 33.7842H42.1667C43.3173 33.7842 44.25 32.8515 44.25 31.7009V8.78422C44.25 7.63364 43.3173 6.70089 42.1667 6.70089H21.3333V10.8676Z" fill="#DF5E63"/>
</svg>
