<svg width="40" height="13" viewBox="0 0 40 13" fill="none" xmlns="http://www.w3.org/2000/svg">
<path d="M0.000219493 6.69793C0.00766998 7.17456 0.203918 7.62876 0.545894 7.96085C0.887869 8.29294 1.34763 8.47579 1.82427 8.46926L32.415 8.46926V12.1279C32.415 12.9035 33.3511 13.2918 33.8981 12.743L39.3562 7.28486C39.6963 6.94476 39.6963 6.39486 39.3562 6.05476L33.8981 0.596653C33.3511 0.0478191 32.415 0.437935 32.415 1.2117V4.87035L1.82427 4.87035C1.58353 4.86706 1.34457 4.9121 1.12154 5.00283C0.898516 5.09355 0.695963 5.2281 0.525876 5.39851C0.35579 5.56893 0.221629 5.77174 0.131337 5.99494C0.0410453 6.21814 -0.00354067 6.45718 0.000219493 6.69793Z" fill="black"/>
</svg>
